<?xml version="1.0"?>
<svg xmlns="http://www.w3.org/2000/svg" xmlns:xlink="http://www.w3.org/1999/xlink" xmlns:svgjs="http://svgjs.com/svgjs" version="1.1" width="512" height="512" x="0" y="0" viewBox="0 0 512 512" style="enable-background:new 0 0 512 512" xml:space="preserve" class=""><circle r="256" cx="256" cy="256" fill="#590995" shape="circle" transform="matrix(1,0,0,1,0,0)"/><g transform="matrix(0.7,0,0,0.7,76.80000000000001,41.80000000000001)"><path xmlns="http://www.w3.org/2000/svg" d="m404 148c0-81.605469-66.394531-148-148-148s-148 66.394531-148 148c0 50.546875 25.480469 95.25 64.261719 121.964844-36.210938 12.492187-69.398438 33.132812-97.28125 61.015625-48.351563 48.351562-74.980469 112.640625-74.980469 181.019531h40c0-119.101562 96.898438-216 216-216 81.605469 0 148-66.394531 148-148zm-148 108c-59.550781 0-108-48.449219-108-108s48.449219-108 108-108 108 48.449219 108 108-48.449219 108-108 108zm66 135.980469h190v40h-190zm190-79.980469v40h-190v-40zm-190 160h190v40h-190zm0 0" fill="#ffffff" data-original="#000000" style="" class=""/></g></svg>
